<svg xmlns="http://www.w3.org/2000/svg" width="112.328" height="67.685" viewBox="0 0 112.328 67.685">
  <g id="EDGAR_LOGO_TEMPLATES-49" data-name="EDGAR LOGO TEMPLATES-49" transform="translate(-23.381 -32.667)">
    <g id="Group_3" data-name="Group 3" transform="translate(71.074 55.768)">
      <g id="Group_1" data-name="Group 1">
        <path id="Path_1" data-name="Path 1" d="M181.06,123.812v4.928h2.74a2.235,2.235,0,0,0,1.425-.322,2.072,2.072,0,0,0,.533-1.489h.34v4.339h-.34a4.768,4.768,0,0,0-.258-1.168,1.153,1.153,0,0,0-.542-.506,2.774,2.774,0,0,0-1.158-.184h-2.74v4.11a3.8,3.8,0,0,0,.073,1.007.576.576,0,0,0,.258.285,1.557,1.557,0,0,0,.7.106H184.2a5.721,5.721,0,0,0,1.535-.147,2.288,2.288,0,0,0,.919-.579,7.088,7.088,0,0,0,1.168-1.719h.368l-1.076,3.126h-9.608v-.34h.441a1.748,1.748,0,0,0,.837-.212.772.772,0,0,0,.4-.441,4.312,4.312,0,0,0,.106-1.2v-8.1a2.681,2.681,0,0,0-.239-1.462,1.424,1.424,0,0,0-1.1-.368h-.441v-.34h9.608l.138,2.731H186.9a4.3,4.3,0,0,0-.428-1.352,1.466,1.466,0,0,0-.694-.561,4.167,4.167,0,0,0-1.3-.138Z" transform="translate(-177.511 -122.846)" fill="#fff"/>
        <path id="Path_2" data-name="Path 2" d="M207.882,135.6v-.34h.469a1.238,1.238,0,0,0,1.122-.506,2.886,2.886,0,0,0,.2-1.361v-8.054a2.576,2.576,0,0,0-.258-1.462,1.351,1.351,0,0,0-1.067-.4h-.469v-.34h5.075a11.086,11.086,0,0,1,4.252.635,5.061,5.061,0,0,1,2.344,2.115,6.523,6.523,0,0,1,.887,3.42,6.239,6.239,0,0,1-1.581,4.349q-1.775,1.949-5.406,1.949h-5.572Zm3.558-.9a9.382,9.382,0,0,0,1.958.258,4.649,4.649,0,0,0,3.54-1.5,6.587,6.587,0,0,0,0-8.137,4.75,4.75,0,0,0-3.613-1.489,7.8,7.8,0,0,0-1.885.267v10.6Z" transform="translate(-196.444 -122.846)" fill="#fff"/>
        <path id="Path_3" data-name="Path 3" d="M255.79,122.374l.322,3.935h-.322a5.387,5.387,0,0,0-1.26-2.216,3.944,3.944,0,0,0-2.859-1.076,4.066,4.066,0,0,0-3.622,1.885,6.77,6.77,0,0,0-1.039,3.788,7.571,7.571,0,0,0,.69,3.255,4.837,4.837,0,0,0,1.807,2.156,4.333,4.333,0,0,0,2.294.685,5.056,5.056,0,0,0,1.333-.175,5.326,5.326,0,0,0,1.241-.515v-3.6a3.334,3.334,0,0,0-.142-1.227.965.965,0,0,0-.441-.441,2.551,2.551,0,0,0-1.053-.152v-.349h4.827v.349h-.23a1.025,1.025,0,0,0-.984.478,3.227,3.227,0,0,0-.184,1.342v3.816a9.351,9.351,0,0,1-2.087.837,9.133,9.133,0,0,1-2.289.267A6.648,6.648,0,0,1,246.3,133.1a6.188,6.188,0,0,1-1.407-4.009,7.027,7.027,0,0,1,3.365-5.912,6.3,6.3,0,0,1,3.236-.8,6.38,6.38,0,0,1,1.236.11,11.3,11.3,0,0,1,1.577.487,2.538,2.538,0,0,0,.689.193.368.368,0,0,0,.3-.161,1.229,1.229,0,0,0,.151-.63h.34Z" transform="translate(-219.519 -122.374)" fill="#fff"/>
        <path id="Path_4" data-name="Path 4" d="M288.1,130.953h-4.827l-.846,1.968a3.111,3.111,0,0,0-.313,1.085.63.63,0,0,0,.272.5,2.365,2.365,0,0,0,1.172.281v.34h-3.926v-.34a2.121,2.121,0,0,0,1.012-.359,5.637,5.637,0,0,0,1.039-1.793l4.386-10.261h.322l4.339,10.371a4.738,4.738,0,0,0,.951,1.623,1.941,1.941,0,0,0,1.191.418v.34h-4.919v-.34a1.844,1.844,0,0,0,1.007-.248.639.639,0,0,0,.262-.515,3.816,3.816,0,0,0-.368-1.278l-.754-1.793Zm-.258-.681-2.115-5.038-2.17,5.038h4.285Z" transform="translate(-241.176 -122.375)" fill="#fff"/>
        <path id="Path_5" data-name="Path 5" d="M328.61,135.6h-3.328l-4.22-5.829q-.469.019-.763.018c-.08,0-.165,0-.258,0s-.187-.008-.285-.014v3.622a2.545,2.545,0,0,0,.258,1.462,1.31,1.31,0,0,0,1.048.4h.487v.34h-5.342v-.34h.469a1.254,1.254,0,0,0,1.131-.515,2.9,2.9,0,0,0,.193-1.352v-8.054a2.548,2.548,0,0,0-.258-1.462,1.351,1.351,0,0,0-1.066-.4h-.469v-.34h4.542a10.8,10.8,0,0,1,2.928.29,3.353,3.353,0,0,1,1.6,1.066,2.776,2.776,0,0,1,.657,1.852,2.911,2.911,0,0,1-.749,2,4.231,4.231,0,0,1-2.322,1.2l2.574,3.577a6.4,6.4,0,0,0,1.517,1.637,3.821,3.821,0,0,0,1.655.515v.34Zm-8.854-6.408c.116,0,.217,0,.3,0s.156,0,.212,0a4.053,4.053,0,0,0,2.69-.772,2.471,2.471,0,0,0,.905-1.968,2.567,2.567,0,0,0-.731-1.9,2.615,2.615,0,0,0-1.935-.731,8.122,8.122,0,0,0-1.443.175v5.186Z" transform="translate(-263.975 -122.845)" fill="#fff"/>
      </g>
      <g id="Group_2" data-name="Group 2" transform="translate(0.964 16.293)">
        <path id="Path_6" data-name="Path 6" d="M182.209,170.792v.136h-2.137v-.136h.177a.532.532,0,0,0,.448-.18,1.121,1.121,0,0,0,.088-.566v-3.222a1.647,1.647,0,0,0-.048-.5.33.33,0,0,0-.151-.158.7.7,0,0,0-.338-.088h-.177v-.136h2.137v.136h-.18a.528.528,0,0,0-.445.18,1.079,1.079,0,0,0-.092.566v3.222a1.647,1.647,0,0,0,.048.5.329.329,0,0,0,.154.158.678.678,0,0,0,.335.088Z" transform="translate(-180.072 -165.827)" fill="#fff" stroke="#fff" stroke-width="0.25"/>
        <path id="Path_7" data-name="Path 7" d="M189.97,165.941h1.353l3.049,3.74v-2.876a.989.989,0,0,0-.1-.574.546.546,0,0,0-.43-.154h-.173v-.136H195.4v.136h-.177a.506.506,0,0,0-.449.191,1.112,1.112,0,0,0-.081.537v4.2h-.133l-3.288-4.016v3.071a1.017,1.017,0,0,0,.1.574.552.552,0,0,0,.43.154h.177v.136h-1.736v-.136h.173a.51.51,0,0,0,.452-.191,1.112,1.112,0,0,0,.081-.537V166.6a2.285,2.285,0,0,0-.329-.335,1.2,1.2,0,0,0-.329-.151,1.167,1.167,0,0,0-.323-.033v-.136Z" transform="translate(-186.242 -165.827)" fill="#fff" stroke="#fff" stroke-width="0.25"/>
        <path id="Path_8" data-name="Path 8" d="M213.052,165.94l.055,1.169h-.14a1.4,1.4,0,0,0-.11-.441.741.741,0,0,0-.3-.314,1.057,1.057,0,0,0-.5-.1h-.7v3.81a1.017,1.017,0,0,0,.1.574.553.553,0,0,0,.43.154h.173v.136h-2.115v-.136h.177a.506.506,0,0,0,.449-.191,1.113,1.113,0,0,0,.081-.537v-3.81h-.6a1.658,1.658,0,0,0-.5.052.681.681,0,0,0-.327.269,1.089,1.089,0,0,0-.162.537h-.14l.059-1.169h4.071Z" transform="translate(-198.057 -165.827)" fill="#fff" stroke="#fff" stroke-width="0.25"/>
        <path id="Path_9" data-name="Path 9" d="M226,166.213v1.971h1.1a.894.894,0,0,0,.57-.129.827.827,0,0,0,.213-.6h.136v1.736h-.136a1.914,1.914,0,0,0-.1-.467.461.461,0,0,0-.217-.2,1.107,1.107,0,0,0-.463-.073H226V170.1a1.526,1.526,0,0,0,.029.4.233.233,0,0,0,.1.114.624.624,0,0,0,.279.042h.846a2.3,2.3,0,0,0,.614-.059.916.916,0,0,0,.368-.232,2.836,2.836,0,0,0,.467-.688h.147l-.43,1.25h-3.843v-.136h.177a.7.7,0,0,0,.335-.085.309.309,0,0,0,.16-.177,1.731,1.731,0,0,0,.042-.482v-3.24a1.074,1.074,0,0,0-.1-.585.57.57,0,0,0-.441-.147h-.177v-.136h3.843l.055,1.092h-.143a1.731,1.731,0,0,0-.171-.541.587.587,0,0,0-.278-.224,1.665,1.665,0,0,0-.519-.055H226Z" transform="translate(-207.82 -165.827)" fill="#fff" stroke="#fff" stroke-width="0.25"/>
        <path id="Path_10" data-name="Path 10" d="M245.691,170.929H244.36l-1.688-2.332c-.125,0-.227.008-.305.008l-.1,0-.114-.006v1.449a1.02,1.02,0,0,0,.1.585.523.523,0,0,0,.419.162h.2v.136H240.73v-.136h.188a.5.5,0,0,0,.452-.206,1.159,1.159,0,0,0,.077-.541v-3.222a1.021,1.021,0,0,0-.1-.585.54.54,0,0,0-.427-.162h-.188v-.136h1.817a4.319,4.319,0,0,1,1.171.116,1.342,1.342,0,0,1,.64.427,1.109,1.109,0,0,1,.263.741,1.165,1.165,0,0,1-.3.8,1.694,1.694,0,0,1-.929.478l1.03,1.431a2.552,2.552,0,0,0,.607.654,1.53,1.53,0,0,0,.662.206v.136Zm-3.541-2.563.121,0,.085,0a1.619,1.619,0,0,0,1.076-.309.989.989,0,0,0,.362-.787,1.029,1.029,0,0,0-.292-.76,1.046,1.046,0,0,0-.774-.292,3.231,3.231,0,0,0-.577.07v2.074Z" transform="translate(-217.886 -165.828)" fill="#fff" stroke="#fff" stroke-width="0.25"/>
        <path id="Path_11" data-name="Path 11" d="M260.168,169.07h-1.931l-.338.787a1.239,1.239,0,0,0-.125.434.252.252,0,0,0,.108.2.949.949,0,0,0,.469.112v.136h-1.57V170.6a.847.847,0,0,0,.4-.143,2.252,2.252,0,0,0,.416-.717l1.754-4.1h.129l1.736,4.149a1.892,1.892,0,0,0,.381.649.775.775,0,0,0,.476.167v.136h-1.968V170.6a.736.736,0,0,0,.4-.1.257.257,0,0,0,.1-.206,1.519,1.519,0,0,0-.147-.511l-.3-.717Zm-.1-.272-.846-2.016-.868,2.016Z" transform="translate(-227.893 -165.639)" fill="#fff" stroke="#fff" stroke-width="0.25"/>
        <path id="Path_12" data-name="Path 12" d="M278.949,165.639l.114,1.7h-.114a2.127,2.127,0,0,0-.651-1.1,1.587,1.587,0,0,0-1.015-.335,1.573,1.573,0,0,0-1.528,1.056,3.579,3.579,0,0,0-.23,1.372,2.914,2.914,0,0,0,.217,1.173,1.624,1.624,0,0,0,.653.761,1.88,1.88,0,0,0,.995.265,1.724,1.724,0,0,0,.857-.208,2.833,2.833,0,0,0,.817-.826l.114.073a2.618,2.618,0,0,1-.875.975,2.216,2.216,0,0,1-1.188.309,2.249,2.249,0,0,1-1.92-.919,2.63,2.63,0,0,1-.508-1.611,2.859,2.859,0,0,1,.335-1.372,2.424,2.424,0,0,1,.921-.969,2.488,2.488,0,0,1,1.282-.344,2.347,2.347,0,0,1,1.066.265.58.58,0,0,0,.221.081.242.242,0,0,0,.173-.07.572.572,0,0,0,.136-.276h.129Z" transform="translate(-239.055 -165.639)" fill="#fff" stroke="#fff" stroke-width="0.25"/>
        <path id="Path_13" data-name="Path 13" d="M295.679,165.94l.055,1.169h-.14a1.4,1.4,0,0,0-.11-.441.74.74,0,0,0-.3-.314,1.057,1.057,0,0,0-.5-.1h-.7v3.81a1.017,1.017,0,0,0,.1.574.552.552,0,0,0,.43.154h.173v.136h-2.115v-.136h.177a.506.506,0,0,0,.449-.191,1.111,1.111,0,0,0,.081-.537v-3.81h-.6a1.659,1.659,0,0,0-.5.052.681.681,0,0,0-.327.269,1.089,1.089,0,0,0-.162.537h-.14l.059-1.169h4.071Z" transform="translate(-249.567 -165.827)" fill="#fff" stroke="#fff" stroke-width="0.25"/>
        <path id="Path_14" data-name="Path 14" d="M309.433,170.792v.136H307.3v-.136h.177a.532.532,0,0,0,.449-.18,1.121,1.121,0,0,0,.088-.566v-3.222a1.647,1.647,0,0,0-.048-.5.33.33,0,0,0-.151-.158.7.7,0,0,0-.338-.088H307.3v-.136h2.137v.136h-.18a.529.529,0,0,0-.445.18,1.08,1.08,0,0,0-.092.566v3.222a1.647,1.647,0,0,0,.048.5.329.329,0,0,0,.154.158.677.677,0,0,0,.335.088Z" transform="translate(-259.384 -165.827)" fill="#fff" stroke="#fff" stroke-width="0.25"/>
        <path id="Path_15" data-name="Path 15" d="M322.554,165.941v.136a.806.806,0,0,0-.4.169,1.524,1.524,0,0,0-.346.552l-1.739,4.244h-.136l-1.868-4.3a2.372,2.372,0,0,0-.2-.4.645.645,0,0,0-.226-.179,1.051,1.051,0,0,0-.362-.083v-.136h2.037v.136a.931.931,0,0,0-.449.117.268.268,0,0,0-.1.217,1.655,1.655,0,0,0,.169.574l1.269,2.924,1.177-2.887a1.943,1.943,0,0,0,.173-.592.279.279,0,0,0-.107-.2.7.7,0,0,0-.36-.138l-.063-.011v-.136h1.537Z" transform="translate(-265.604 -165.827)" fill="#fff" stroke="#fff" stroke-width="0.25"/>
        <path id="Path_16" data-name="Path 16" d="M337.009,166.213v1.971h1.1a.893.893,0,0,0,.57-.129.827.827,0,0,0,.213-.6h.136v1.736h-.136a1.911,1.911,0,0,0-.1-.467.461.461,0,0,0-.217-.2,1.108,1.108,0,0,0-.463-.073h-1.1V170.1a1.525,1.525,0,0,0,.029.4.233.233,0,0,0,.1.114.624.624,0,0,0,.279.042h.846a2.3,2.3,0,0,0,.614-.059.915.915,0,0,0,.368-.232,2.835,2.835,0,0,0,.467-.688h.147l-.43,1.25H335.59v-.136h.177a.7.7,0,0,0,.335-.085.309.309,0,0,0,.16-.177,1.732,1.732,0,0,0,.042-.482v-3.24a1.074,1.074,0,0,0-.1-.585.57.57,0,0,0-.441-.147h-.177v-.136h3.843l.055,1.092h-.143a1.726,1.726,0,0,0-.171-.541.587.587,0,0,0-.277-.224,1.664,1.664,0,0,0-.519-.055h-1.368Z" transform="translate(-277.023 -165.827)" fill="#fff" stroke="#fff" stroke-width="0.25"/>
      </g>
    </g>
    <path id="Path_17" data-name="Path 17" d="M78.423,32.668h0c-2.9.662-1.876,1.411-1.876,1.411S68.806,42.207,65.627,44.9c-3.02,2.558-6.386,6.145-6.619,6.792-.656,1.275-4.333,4.407-4.7,4.661-.321.224-2.44,2.6-3.2,2.558a2.383,2.383,0,0,1-1.571-1.338c.95-.919.533-1.1.534-1.1h0a6.365,6.365,0,0,1-1.087-2.014.33.33,0,0,0-.3-.235,3.7,3.7,0,0,1-.85-.111,1.053,1.053,0,0,1-.63-.654c-.274-.879-1.292-.6-1.292-.6a4.042,4.042,0,0,0-3.482,2.607l-9.1,11.183,9.128-9.95.058.345a2.47,2.47,0,0,0,.275,1.045l-4.971,6.1s0,0,0,0l5.3-5.65a2.251,2.251,0,0,0,.532.4l-6.968,8.467,7.7-8.186h0a4.023,4.023,0,0,0,.969.118c.067,0,.107,0,.107,0l.042,0L39.7,66.494l6.492-6.976a1.8,1.8,0,0,1,.555.336c-.5.639-3.941,5.07-3.941,5.07s0,0,0,0,3.851-4.28,4.224-4.675a1.257,1.257,0,0,1,.112.528c0,1.323-.5,1.411-.5,1.411-2.7,1.088-5.17,7.792-5.231,7.969S37.4,75.187,37.4,75.187a5.926,5.926,0,0,1-2.181,1.588A3.534,3.534,0,0,0,33.158,79.8a1.075,1.075,0,0,0-.007.34l-.011,0s-9.9,9.681-9.758,10.619.823.232,2.928-2.018,7.946-8.41,7.946-8.41.334.276.478.166c.526-.4,1.357-1.6,2.463-2.639,1.519-1.427,3.333-2.767,4.257-3.643a6.6,6.6,0,0,0,2.12-3.235,8.368,8.368,0,0,1,.823-1.308,9.109,9.109,0,0,1,2.707-2.9,1.562,1.562,0,0,1,1.4.118L41.341,75.62l7.851-8.33c.254.17.509.364.761.57l-7.445,9,8.031-8.49c.2.181.4.364.581.539l-7.926,9.274,8.476-8.744-.545-.526c.236.225.455.438.648.625a2.837,2.837,0,0,1,.668,1l.009.025L43.867,80.823s0,0,0,0l8.7-9.28,0,0a2.1,2.1,0,0,1-.7,1.343,5.127,5.127,0,0,0-1.334,2.908l-.059.066L42.15,85.874s0,0,0,0l8.212-8.747a18.535,18.535,0,0,0-.046,1.97.118.118,0,0,1-.046.056,4.728,4.728,0,0,0-1.237,1.474l0-.006-8,9.4,7.466-7.94h0a3.7,3.7,0,0,0-.073.487,10.976,10.976,0,0,1-2.038,4.649l-9.651,9.552L43.2,91.126a4.249,4.249,0,0,0-.2,1.027,13.032,13.032,0,0,1-3.526,7.736.557.557,0,0,0-.11.343H39.3v.121H60.134V100.3a.055.055,0,0,0-.026-.087c-.937-.306-3.421-1.205-3.92-2.292-.618-1.345,7.366-8.005,7.595-8.094s.549-.838.549-.838c.531-3-1.847-7.192-2.338-8.016a2.784,2.784,0,0,0-.175-.259c-.674-.885-5.007-6.644-5.471-8.861-.5-2.4.082-4,.128-5.12A26.831,26.831,0,0,0,55.364,61.9a4.541,4.541,0,0,1,.984-3.352c.463-.849,5.972-6.506,6.581-7.347.657-.909,5.908-7.45,7.183-8.921,1.789-2.063,7.595-7.807,7.595-7.807.96.176.717-1.806.717-1.809Zm-18.3,52.524c2.471,3.066,1.35,3.021,1.35,3.021-4.552,1.037-5.6,3.926-6.131,5.932s-.823,2.161-.823,2.161a10.964,10.964,0,0,0-2.142,3.34.476.476,0,0,0,.184.586H42.71l0-.2v.184c.05-.251.209-1.024.872-3.249,1.122-3.771,2.585-3.882,3.386-4.918a4.691,4.691,0,0,0,.729-1.545,3.488,3.488,0,0,1,.914-1.535,22.24,22.24,0,0,0,2.794-4.506s1.9-4.609,2.379-5.315.938-.375.938-.375,2.928,3.352,5.4,6.417Z" fill="#fff"/>
  </g>
</svg>
