<svg id="EDGAR_LOGO_TEMPLATES-49" data-name="EDGAR LOGO TEMPLATES-49" xmlns="http://www.w3.org/2000/svg" xmlns:xlink="http://www.w3.org/1999/xlink" width="147.542" height="88.904" viewBox="0 0 147.542 88.904">
  <defs>
    <linearGradient id="linear-gradient" y1="0.5" x2="1" y2="0.5" gradientUnits="objectBoundingBox">
      <stop offset="0" stop-color="#1cc1f2"/>
      <stop offset="0.144" stop-color="#1cb6ea"/>
      <stop offset="0.393" stop-color="#1d9ad7"/>
      <stop offset="0.715" stop-color="#1f6db9"/>
      <stop offset="1" stop-color="#21409a"/>
    </linearGradient>
  </defs>
  <g id="Group_3" data-name="Group 3" transform="translate(62.644 30.343)">
    <g id="Group_1" data-name="Group 1">
      <path id="Path_1" data-name="Path 1" d="M182.173,124.025V130.5h3.6a2.936,2.936,0,0,0,1.872-.422,2.722,2.722,0,0,0,.7-1.956h.447v5.7h-.447a6.26,6.26,0,0,0-.338-1.534,1.515,1.515,0,0,0-.712-.664,3.643,3.643,0,0,0-1.522-.241h-3.6v5.4a4.994,4.994,0,0,0,.1,1.322.756.756,0,0,0,.338.374,2.044,2.044,0,0,0,.918.139H186.3a7.514,7.514,0,0,0,2.017-.193,3.005,3.005,0,0,0,1.207-.761,9.31,9.31,0,0,0,1.534-2.258h.483l-1.413,4.106h-12.62v-.447h.58a2.3,2.3,0,0,0,1.1-.278,1.014,1.014,0,0,0,.525-.58,5.664,5.664,0,0,0,.139-1.582V125.981a3.522,3.522,0,0,0-.314-1.92,1.871,1.871,0,0,0-1.449-.483h-.58v-.447h12.62l.181,3.587h-.471a5.65,5.65,0,0,0-.562-1.775,1.925,1.925,0,0,0-.912-.737,5.475,5.475,0,0,0-1.7-.181Z" transform="translate(-177.511 -122.757)" fill="#414042"/>
      <path id="Path_2" data-name="Path 2" d="M207.882,139.506v-.447h.616a1.627,1.627,0,0,0,1.474-.664,3.791,3.791,0,0,0,.266-1.787V126.029a3.383,3.383,0,0,0-.338-1.92,1.775,1.775,0,0,0-1.4-.531h-.616v-.447h6.666a14.561,14.561,0,0,1,5.586.833,6.648,6.648,0,0,1,3.079,2.777,8.568,8.568,0,0,1,1.165,4.492,8.2,8.2,0,0,1-2.077,5.712q-2.331,2.561-7.1,2.56h-7.318Zm4.673-1.184a12.322,12.322,0,0,0,2.572.338,6.107,6.107,0,0,0,4.649-1.968,8.652,8.652,0,0,0,0-10.687,6.239,6.239,0,0,0-4.746-1.956,10.253,10.253,0,0,0-2.476.35v13.924Z" transform="translate(-192.859 -122.757)" fill="#414042"/>
      <path id="Path_3" data-name="Path 3" d="M259.205,122.374l.422,5.169h-.422a7.075,7.075,0,0,0-1.655-2.911,5.18,5.18,0,0,0-3.756-1.413,5.34,5.34,0,0,0-4.758,2.476,8.892,8.892,0,0,0-1.365,4.976,9.945,9.945,0,0,0,.906,4.275,6.353,6.353,0,0,0,2.373,2.832,5.692,5.692,0,0,0,3.013.9,6.64,6.64,0,0,0,1.751-.23,7,7,0,0,0,1.63-.676v-4.734a4.379,4.379,0,0,0-.187-1.612,1.268,1.268,0,0,0-.58-.58,3.351,3.351,0,0,0-1.383-.2v-.459h6.34v.459h-.3a1.346,1.346,0,0,0-1.292.628,4.239,4.239,0,0,0-.241,1.763v5.012a12.282,12.282,0,0,1-2.741,1.1,12,12,0,0,1-3.007.35q-4.746,0-7.21-3.043a8.128,8.128,0,0,1-1.848-5.266,9.23,9.23,0,0,1,4.42-7.765,8.281,8.281,0,0,1,4.251-1.051,8.382,8.382,0,0,1,1.624.145,14.851,14.851,0,0,1,2.072.64,3.334,3.334,0,0,0,.906.254.483.483,0,0,0,.393-.211,1.614,1.614,0,0,0,.2-.827h.447Z" transform="translate(-211.563 -122.374)" fill="#414042"/>
      <path id="Path_4" data-name="Path 4" d="M290.758,133.642h-6.34l-1.111,2.585a4.085,4.085,0,0,0-.411,1.425.827.827,0,0,0,.357.658,3.106,3.106,0,0,0,1.539.369v.447h-5.157v-.447a2.786,2.786,0,0,0,1.329-.471,7.4,7.4,0,0,0,1.365-2.355l5.761-13.477h.422l5.7,13.622a6.223,6.223,0,0,0,1.25,2.131,2.549,2.549,0,0,0,1.564.55v.447h-6.461v-.447a2.422,2.422,0,0,0,1.322-.326.839.839,0,0,0,.344-.676,5.013,5.013,0,0,0-.483-1.679l-.99-2.355Zm-.338-.894-2.777-6.618-2.85,6.618h5.628Z" transform="translate(-229.12 -122.375)" fill="#414042"/>
      <path id="Path_5" data-name="Path 5" d="M332.5,139.506h-4.372l-5.543-7.657q-.616.025-1,.024c-.1,0-.217,0-.338-.006s-.246-.01-.374-.018v4.758a3.344,3.344,0,0,0,.338,1.92,1.72,1.72,0,0,0,1.377.531h.64v.447h-7.017v-.447h.616a1.648,1.648,0,0,0,1.485-.676,3.81,3.81,0,0,0,.254-1.775V126.028a3.348,3.348,0,0,0-.338-1.92,1.775,1.775,0,0,0-1.4-.531h-.616v-.447h5.966a14.183,14.183,0,0,1,3.846.38,4.4,4.4,0,0,1,2.1,1.4,3.646,3.646,0,0,1,.863,2.433,3.824,3.824,0,0,1-.984,2.621,5.558,5.558,0,0,1-3.049,1.57l3.381,4.7a8.4,8.4,0,0,0,1.992,2.15,5.019,5.019,0,0,0,2.174.676v.447Zm-11.63-8.417c.153,0,.285,0,.4.006s.205.006.278.006a5.324,5.324,0,0,0,3.533-1.015,3.246,3.246,0,0,0,1.189-2.585,3.372,3.372,0,0,0-.96-2.494,3.435,3.435,0,0,0-2.542-.96,10.667,10.667,0,0,0-1.9.23v6.811Z" transform="translate(-247.601 -122.756)" fill="#414042"/>
    </g>
    <g id="Group_2" data-name="Group 2" transform="translate(1.267 21.401)">
      <path id="Path_6" data-name="Path 6" d="M182.879,172.313v.179h-2.807v-.179h.232a.7.7,0,0,0,.589-.237,1.472,1.472,0,0,0,.116-.744V167.1a2.163,2.163,0,0,0-.063-.657.433.433,0,0,0-.2-.208.916.916,0,0,0-.444-.116h-.232v-.179h2.807v.179h-.237a.694.694,0,0,0-.585.237,1.417,1.417,0,0,0-.121.744v4.232a2.165,2.165,0,0,0,.063.657.432.432,0,0,0,.2.208.89.89,0,0,0,.44.116Z" transform="translate(-180.072 -165.792)" fill="#1a579b" stroke="#1a579b" stroke-width="0.25"/>
      <path id="Path_7" data-name="Path 7" d="M189.97,165.941h1.778l4,4.913v-3.778a1.3,1.3,0,0,0-.135-.753.717.717,0,0,0-.565-.2h-.227v-.179h2.28v.179h-.232a.664.664,0,0,0-.589.251,1.461,1.461,0,0,0-.106.705V172.6H196l-4.318-5.275v4.033a1.337,1.337,0,0,0,.131.753.726.726,0,0,0,.565.2h.232v.179h-2.28v-.179h.227a.67.67,0,0,0,.594-.251,1.461,1.461,0,0,0,.106-.705V166.8a3,3,0,0,0-.432-.44,1.58,1.58,0,0,0-.432-.2,1.531,1.531,0,0,0-.425-.044v-.179Z" transform="translate(-185.074 -165.792)" fill="#1a579b" stroke="#1a579b" stroke-width="0.25"/>
      <path id="Path_8" data-name="Path 8" d="M214.346,165.94l.072,1.536h-.184a1.839,1.839,0,0,0-.145-.58.973.973,0,0,0-.4-.413,1.389,1.389,0,0,0-.654-.133h-.923v5a1.337,1.337,0,0,0,.131.753.726.726,0,0,0,.565.2h.227v.179H210.26v-.179h.232a.664.664,0,0,0,.589-.251,1.461,1.461,0,0,0,.106-.705v-5H210.4a2.177,2.177,0,0,0-.652.068.894.894,0,0,0-.43.353,1.43,1.43,0,0,0-.213.705h-.184L209,165.94h5.348Z" transform="translate(-194.651 -165.791)" fill="#1a579b" stroke="#1a579b" stroke-width="0.25"/>
      <path id="Path_9" data-name="Path 9" d="M226.446,166.3v2.589h1.439a1.174,1.174,0,0,0,.749-.169,1.087,1.087,0,0,0,.28-.783h.179v2.28h-.179a2.514,2.514,0,0,0-.135-.613.605.605,0,0,0-.285-.266,1.455,1.455,0,0,0-.608-.1h-1.439V171.4a2,2,0,0,0,.039.529.306.306,0,0,0,.135.15.82.82,0,0,0,.367.055H228.1a3.014,3.014,0,0,0,.807-.077,1.2,1.2,0,0,0,.483-.3,3.725,3.725,0,0,0,.613-.9h.193l-.565,1.642h-5.048v-.179h.232a.92.92,0,0,0,.44-.111.406.406,0,0,0,.21-.232,2.274,2.274,0,0,0,.055-.633V167.08a1.411,1.411,0,0,0-.126-.768.749.749,0,0,0-.58-.193h-.232v-.179h5.048l.072,1.434h-.188a2.271,2.271,0,0,0-.225-.71.771.771,0,0,0-.365-.295,2.186,2.186,0,0,0-.681-.072h-1.8Z" transform="translate(-202.565 -165.791)" fill="#1a579b" stroke="#1a579b" stroke-width="0.25"/>
      <path id="Path_10" data-name="Path 10" d="M247.246,172.492H245.5l-2.217-3.062c-.164.006-.3.01-.4.01-.042,0-.087,0-.135,0l-.15-.007v1.9a1.34,1.34,0,0,0,.135.768.687.687,0,0,0,.551.213h.256v.179H240.73v-.179h.246a.658.658,0,0,0,.594-.271,1.523,1.523,0,0,0,.1-.71V167.1a1.34,1.34,0,0,0-.135-.768.709.709,0,0,0-.56-.213h-.246v-.179h2.386a5.673,5.673,0,0,1,1.538.152,1.762,1.762,0,0,1,.84.56,1.457,1.457,0,0,1,.345.974,1.531,1.531,0,0,1-.394,1.048,2.225,2.225,0,0,1-1.22.628l1.352,1.879a3.353,3.353,0,0,0,.8.86,2.009,2.009,0,0,0,.87.271v.179Zm-4.652-3.367c.061,0,.114,0,.159,0l.111,0a2.127,2.127,0,0,0,1.413-.406,1.3,1.3,0,0,0,.476-1.034,1.351,1.351,0,0,0-.384-1,1.373,1.373,0,0,0-1.017-.384,4.245,4.245,0,0,0-.758.092v2.725Z" transform="translate(-210.725 -165.792)" fill="#1a579b" stroke="#1a579b" stroke-width="0.25"/>
      <path id="Path_11" data-name="Path 11" d="M261.23,170.146h-2.536l-.444,1.034a1.628,1.628,0,0,0-.164.57.331.331,0,0,0,.143.263,1.247,1.247,0,0,0,.616.147v.179h-2.063v-.179a1.113,1.113,0,0,0,.531-.189,2.957,2.957,0,0,0,.546-.942l2.3-5.391h.169l2.28,5.449a2.485,2.485,0,0,0,.5.853,1.017,1.017,0,0,0,.626.22v.179h-2.585v-.179a.966.966,0,0,0,.529-.131.337.337,0,0,0,.138-.271,1.994,1.994,0,0,0-.193-.671l-.4-.942Zm-.135-.358-1.111-2.647-1.14,2.647Z" transform="translate(-218.837 -165.639)" fill="#1a579b" stroke="#1a579b" stroke-width="0.25"/>
      <path id="Path_12" data-name="Path 12" d="M280.285,165.639l.15,2.227h-.15a2.794,2.794,0,0,0-.855-1.439,2.085,2.085,0,0,0-1.333-.44,2.066,2.066,0,0,0-2.007,1.387,4.7,4.7,0,0,0-.3,1.8,3.826,3.826,0,0,0,.285,1.541,2.133,2.133,0,0,0,.857,1,2.469,2.469,0,0,0,1.307.348,2.265,2.265,0,0,0,1.125-.273,3.72,3.72,0,0,0,1.072-1.084l.15.1a3.438,3.438,0,0,1-1.15,1.28,2.91,2.91,0,0,1-1.56.406,2.954,2.954,0,0,1-2.522-1.207,3.454,3.454,0,0,1-.667-2.116,3.755,3.755,0,0,1,.44-1.8,3.183,3.183,0,0,1,1.21-1.273,3.267,3.267,0,0,1,1.683-.452,3.084,3.084,0,0,1,1.4.348.762.762,0,0,0,.29.106.318.318,0,0,0,.227-.092.752.752,0,0,0,.179-.362h.169Z" transform="translate(-227.885 -165.639)" fill="#1a579b" stroke="#1a579b" stroke-width="0.25"/>
      <path id="Path_13" data-name="Path 13" d="M296.973,165.94l.072,1.536h-.184a1.841,1.841,0,0,0-.145-.58.973.973,0,0,0-.4-.413,1.389,1.389,0,0,0-.654-.133h-.923v5a1.336,1.336,0,0,0,.131.753.725.725,0,0,0,.565.2h.227v.179h-2.777v-.179h.232a.664.664,0,0,0,.589-.251,1.46,1.46,0,0,0,.106-.705v-5h-.787a2.178,2.178,0,0,0-.652.068.894.894,0,0,0-.43.353,1.43,1.43,0,0,0-.213.705h-.184l.077-1.536h5.348Z" transform="translate(-236.407 -165.791)" fill="#1a579b" stroke="#1a579b" stroke-width="0.25"/>
      <path id="Path_14" data-name="Path 14" d="M310.1,172.313v.179H307.3v-.179h.232a.7.7,0,0,0,.589-.237,1.472,1.472,0,0,0,.116-.744V167.1a2.165,2.165,0,0,0-.063-.657.433.433,0,0,0-.2-.208.916.916,0,0,0-.444-.116H307.3v-.179H310.1v.179h-.237a.694.694,0,0,0-.585.237,1.418,1.418,0,0,0-.121.744v4.232a2.165,2.165,0,0,0,.063.657.432.432,0,0,0,.2.208.89.89,0,0,0,.44.116Z" transform="translate(-244.364 -165.792)" fill="#1a579b" stroke="#1a579b" stroke-width="0.25"/>
      <path id="Path_15" data-name="Path 15" d="M324.209,165.941v.179a1.059,1.059,0,0,0-.526.222,2,2,0,0,0-.454.725l-2.285,5.575h-.179l-2.454-5.647a3.114,3.114,0,0,0-.266-.531.847.847,0,0,0-.3-.234,1.383,1.383,0,0,0-.476-.109v-.179h2.676v.179a1.223,1.223,0,0,0-.589.154.352.352,0,0,0-.135.285,2.173,2.173,0,0,0,.222.753l1.666,3.84,1.546-3.792a2.55,2.55,0,0,0,.227-.778.367.367,0,0,0-.14-.268.925.925,0,0,0-.473-.181l-.082-.014v-.179h2.019Z" transform="translate(-249.406 -165.792)" fill="#1a579b" stroke="#1a579b" stroke-width="0.25"/>
      <path id="Path_16" data-name="Path 16" d="M337.454,166.3v2.589h1.439a1.174,1.174,0,0,0,.749-.169,1.086,1.086,0,0,0,.28-.783h.179v2.28h-.179a2.51,2.51,0,0,0-.135-.613.6.6,0,0,0-.285-.266,1.455,1.455,0,0,0-.608-.1h-1.439V171.4a2.006,2.006,0,0,0,.039.529.306.306,0,0,0,.135.15.82.82,0,0,0,.367.055h1.111a3.014,3.014,0,0,0,.807-.077,1.2,1.2,0,0,0,.483-.3,3.721,3.721,0,0,0,.613-.9h.193l-.565,1.642H335.59v-.179h.232a.921.921,0,0,0,.44-.111.407.407,0,0,0,.21-.232,2.277,2.277,0,0,0,.055-.633V167.08a1.41,1.41,0,0,0-.126-.768.749.749,0,0,0-.58-.193h-.232v-.179h5.048l.072,1.434h-.188a2.268,2.268,0,0,0-.225-.71.771.771,0,0,0-.365-.295,2.186,2.186,0,0,0-.681-.072h-1.8Z" transform="translate(-258.663 -165.791)" fill="#1a579b" stroke="#1a579b" stroke-width="0.25"/>
    </g>
  </g>
  <path id="Path_17" data-name="Path 17" d="M95.678,32.668h0c-3.806.869-2.464,1.854-2.464,1.854S83.046,45.2,78.871,48.735c-3.966,3.36-8.388,8.072-8.694,8.922-.862,1.675-5.692,5.789-6.17,6.122-.422.294-3.205,3.418-4.207,3.36a3.13,3.13,0,0,1-2.063-1.757c1.247-1.207.7-1.446.7-1.448h0a8.361,8.361,0,0,1-1.427-2.646.434.434,0,0,0-.4-.309,4.866,4.866,0,0,1-1.116-.146,1.383,1.383,0,0,1-.827-.859c-.36-1.155-1.7-.79-1.7-.79-1.241.164-3.85.914-4.573,3.425L36.444,77.3,48.433,64.228l.077.453a3.244,3.244,0,0,0,.361,1.373l-6.529,8.014s0,0,0,0L49.3,66.65a2.956,2.956,0,0,0,.7.529L40.851,78.3l10.11-10.752-.006,0a5.284,5.284,0,0,0,1.273.155c.089,0,.141,0,.141,0l.055.006L44.815,77.1l8.527-9.163a2.366,2.366,0,0,1,.729.442c-.653.839-5.177,6.659-5.177,6.659s0,0,0,0,5.058-5.622,5.548-6.141a1.651,1.651,0,0,1,.147.694c0,1.738-.661,1.854-.661,1.854-3.546,1.429-6.791,10.235-6.871,10.467s-5.268,6.6-5.268,6.6A7.783,7.783,0,0,1,38.928,90.6a4.642,4.642,0,0,0-2.7,3.978,1.412,1.412,0,0,0-.009.447l-.015,0s-13,12.716-12.817,13.947,1.082.3,3.846-2.65S37.666,95.275,37.666,95.275s.439.363.628.217c.691-.531,1.783-2.1,3.235-3.466,2-1.874,4.378-3.634,5.592-4.785a8.666,8.666,0,0,0,2.785-4.249,10.992,10.992,0,0,1,1.082-1.718,11.965,11.965,0,0,1,3.556-3.8,2.052,2.052,0,0,1,1.839.155l-9.41,11.461L57.284,78.144c.333.224.669.478,1,.749L48.5,90.708,59.052,79.556c.265.238.521.478.764.708L49.4,92.446,60.538,80.96l-.716-.69c.31.3.6.576.852.821a3.726,3.726,0,0,1,.877,1.31l.012.033L50.289,95.919s0,0,0,0L61.724,83.732l0,0a2.763,2.763,0,0,1-.926,1.764,6.734,6.734,0,0,0-1.753,3.82l-.077.087L48.034,102.554s0,0,0,0L58.823,91.068a24.343,24.343,0,0,0-.061,2.588.155.155,0,0,1-.061.073,6.21,6.21,0,0,0-1.625,1.936l0-.008L46.566,108l9.807-10.429h0a4.865,4.865,0,0,0-.1.64,14.417,14.417,0,0,1-2.677,6.107L40.923,116.862l8.487-7.41a5.581,5.581,0,0,0-.264,1.348,17.117,17.117,0,0,1-4.632,10.161.732.732,0,0,0-.144.45h-.075v.158H71.655V121.5a.072.072,0,0,0-.034-.115c-1.23-.4-4.493-1.583-5.149-3.01-.811-1.767,9.675-10.515,9.976-10.631s.721-1.1.721-1.1c.7-3.943-2.426-9.447-3.071-10.529a3.66,3.66,0,0,0-.23-.34c-.885-1.163-6.577-8.727-7.186-11.639-.661-3.157.108-5.248.168-6.725s-1.46-6.339-1.46-6.339c-.5-2.2,1.292-4.4,1.292-4.4.608-1.115,7.844-8.546,8.644-9.651.863-1.193,7.76-9.786,9.435-11.717,2.35-2.709,9.976-10.254,9.976-10.254,1.261.231.942-2.372.941-2.375ZM71.639,101.658c3.245,4.027,1.773,3.969,1.773,3.969-5.98,1.362-7.362,5.156-8.053,7.792s-1.082,2.839-1.082,2.839a14.4,14.4,0,0,0-2.813,4.387.626.626,0,0,0,.242.769H48.77l0-.26,0,.241c.066-.329.275-1.345,1.145-4.268,1.473-4.953,3.4-5.1,4.447-6.46a6.161,6.161,0,0,0,.958-2.03,4.581,4.581,0,0,1,1.2-2.016c1.564-1.523,3.67-5.919,3.67-5.919s2.494-6.054,3.125-6.981,1.232-.493,1.232-.493,3.846,4.4,7.091,8.429Z" transform="translate(-23.381 -32.667)" fill="url(#linear-gradient)"/>
</svg>
